<svg width="1000" height="1000" viewBox="0 0 1000 1000" fill="none" xmlns="http://www.w3.org/2000/svg">
<rect width="1000" height="1000" fill="#12171D"/>
<path d="M840.961 289.791C840.961 270.577 825.408 255 806.224 255H194.737C175.553 255 160 270.577 160 289.791V710.246C160 729.46 175.553 745.037 194.737 745.037H806.224C825.408 745.037 840.961 729.46 840.961 710.246V289.791ZM771.487 360.649C771.487 370.89 767.001 380.613 759.217 387.251L626.012 500.847L759.345 614.552C767.049 621.12 771.487 630.746 771.487 640.879C771.487 659.975 756.031 675.457 736.962 675.457H736.666C728.229 675.457 720.066 672.449 713.642 666.97L572.426 546.542L523 588.69C516.508 594.224 508.493 596.991 500.478 596.991C492.463 596.991 484.448 594.224 477.957 588.69L428.53 546.542L287.544 666.776C280.974 672.379 272.625 675.455 263.996 675.455C244.93 675.455 229.472 659.975 229.472 640.877C229.472 630.743 233.912 621.12 241.614 614.549L374.949 500.844L243.587 388.821C234.634 381.186 229.474 369.999 229.474 358.221C229.474 339.643 244.511 324.58 263.063 324.58C271.043 324.58 278.762 327.426 284.839 332.608L489.501 507.139C495.83 512.537 505.135 512.537 511.467 507.139L716.127 332.608C722.204 327.426 729.922 324.58 737.9 324.58C756.45 324.58 771.487 339.64 771.487 358.219V360.649Z" fill="white"/>
</svg>
