<svg width="390" height="76" viewBox="0 0 390 76" fill="none" xmlns="http://www.w3.org/2000/svg">
<path d="M389.347 16.5118C389.347 14.5724 387.777 13 385.84 13H324.117C322.18 13 320.61 14.5724 320.61 16.5118V58.9528C320.61 60.8922 322.18 62.4646 324.117 62.4646H385.84C387.777 62.4646 389.347 60.8922 389.347 58.9528V16.5118ZM382.334 23.6643C382.334 24.698 381.881 25.6794 381.096 26.3495L367.65 37.8159L381.108 49.2933C381.886 49.9564 382.334 50.928 382.334 51.9508C382.334 53.8784 380.774 55.4412 378.849 55.4412H378.819C377.968 55.4412 377.144 55.1375 376.495 54.5845L362.241 42.4284L357.252 46.6828C356.596 47.2415 355.787 47.5208 354.978 47.5208C354.169 47.5208 353.36 47.2415 352.705 46.6828L347.716 42.4284L333.485 54.5648C332.821 55.1305 331.979 55.4409 331.108 55.4409C329.183 55.4409 327.623 53.8784 327.623 51.9506C327.623 50.9277 328.071 49.9563 328.849 49.2931L342.307 37.8157L329.048 26.508C328.144 25.7372 327.623 24.6081 327.623 23.4192C327.623 21.5439 329.141 20.0235 331.014 20.0235C331.819 20.0235 332.598 20.3107 333.212 20.8338L353.87 38.4511C354.509 38.9959 355.448 38.9959 356.088 38.4511L376.746 20.8338C377.359 20.3107 378.139 20.0235 378.944 20.0235C380.816 20.0235 382.334 21.5436 382.334 23.419V23.6643Z" fill="white"/>
<path d="M6.528 60C6.10133 60 5.73867 59.8507 5.44 59.552C5.14133 59.2533 4.992 58.8907 4.992 58.464V16.736C4.992 16.3093 5.14133 15.9467 5.44 15.648C5.73867 15.3493 6.10133 15.2 6.528 15.2H12.48C12.9067 15.2 13.2693 15.3493 13.568 15.648C13.8667 15.9467 14.016 16.3093 14.016 16.736V52.384H34.304C34.7733 52.384 35.1573 52.5333 35.456 52.832C35.7547 53.1307 35.904 53.5147 35.904 53.984V58.464C35.904 58.8907 35.7547 59.2533 35.456 59.552C35.1573 59.8507 34.7733 60 34.304 60H6.528ZM43.653 60C43.2263 60 42.8637 59.8507 42.565 59.552C42.2663 59.2533 42.117 58.8907 42.117 58.464V16.736C42.117 16.3093 42.2663 15.9467 42.565 15.648C42.8637 15.3493 43.2263 15.2 43.653 15.2H49.669C50.1383 15.2 50.501 15.3493 50.757 15.648C51.0557 15.9467 51.205 16.3093 51.205 16.736V58.464C51.205 58.8907 51.0557 59.2533 50.757 59.552C50.501 59.8507 50.1383 60 49.669 60H43.653ZM72.634 60C72.2073 60 71.8447 59.8507 71.546 59.552C71.2473 59.2533 71.098 58.8907 71.098 58.464V23.072H59.258C58.8313 23.072 58.4687 22.9227 58.17 22.624C57.8713 22.3253 57.722 21.9627 57.722 21.536V16.8C57.722 16.3307 57.8713 15.9467 58.17 15.648C58.4687 15.3493 58.8313 15.2 59.258 15.2H91.898C92.3673 15.2 92.7513 15.3493 93.05 15.648C93.3487 15.9467 93.498 16.3307 93.498 16.8V21.536C93.498 21.9627 93.3487 22.3253 93.05 22.624C92.7513 22.9227 92.3673 23.072 91.898 23.072H80.122V58.464C80.122 58.8907 79.9727 59.2533 79.674 59.552C79.3753 59.8507 78.9913 60 78.522 60H72.634ZM111.384 60C110.957 60 110.595 59.8507 110.296 59.552C109.997 59.2533 109.848 58.8907 109.848 58.464V23.072H98.008C97.5813 23.072 97.2187 22.9227 96.92 22.624C96.6213 22.3253 96.472 21.9627 96.472 21.536V16.8C96.472 16.3307 96.6213 15.9467 96.92 15.648C97.2187 15.3493 97.5813 15.2 98.008 15.2H130.648C131.117 15.2 131.501 15.3493 131.8 15.648C132.099 15.9467 132.248 16.3307 132.248 16.8V21.536C132.248 21.9627 132.099 22.3253 131.8 22.624C131.501 22.9227 131.117 23.072 130.648 23.072H118.872V58.464C118.872 58.8907 118.723 59.2533 118.424 59.552C118.125 59.8507 117.741 60 117.272 60H111.384ZM140.278 60C139.851 60 139.489 59.8507 139.19 59.552C138.891 59.2533 138.742 58.8907 138.742 58.464V16.8C138.742 16.3307 138.891 15.9467 139.19 15.648C139.489 15.3493 139.851 15.2 140.278 15.2H168.438C168.907 15.2 169.291 15.3493 169.59 15.648C169.889 15.9467 170.038 16.3307 170.038 16.8V21.024C170.038 21.4507 169.889 21.8133 169.59 22.112C169.291 22.4107 168.907 22.56 168.438 22.56H147.382V33.888H167.03C167.499 33.888 167.883 34.0373 168.182 34.336C168.481 34.592 168.63 34.9547 168.63 35.424V39.392C168.63 39.8613 168.481 40.2453 168.182 40.544C167.883 40.8 167.499 40.928 167.03 40.928H147.382V52.64H168.95C169.419 52.64 169.803 52.7893 170.102 53.088C170.401 53.3867 170.55 53.7707 170.55 54.24V58.464C170.55 58.8907 170.401 59.2533 170.102 59.552C169.803 59.8507 169.419 60 168.95 60H140.278ZM180.091 60C179.664 60 179.301 59.8507 179.003 59.552C178.704 59.2533 178.555 58.8907 178.555 58.464V16.8C178.555 16.3307 178.704 15.9467 179.003 15.648C179.301 15.3493 179.664 15.2 180.091 15.2H196.667C201.829 15.2 205.904 16.3947 208.891 18.784C211.877 21.1733 213.371 24.6507 213.371 29.216C213.371 32.3733 212.581 34.9973 211.003 37.088C209.467 39.1787 207.397 40.6933 204.795 41.632L214.139 57.952C214.267 58.208 214.331 58.4427 214.331 58.656C214.331 59.04 214.181 59.36 213.883 59.616C213.627 59.872 213.328 60 212.987 60H207.163C206.437 60 205.883 59.808 205.499 59.424C205.115 59.04 204.816 58.656 204.603 58.272L196.347 43.104H187.451V58.464C187.451 58.8907 187.301 59.2533 187.003 59.552C186.747 59.8507 186.384 60 185.915 60H180.091ZM187.451 35.872H196.475C199.077 35.872 201.019 35.296 202.299 34.144C203.579 32.9493 204.219 31.2853 204.219 29.152C204.219 27.0187 203.579 25.3547 202.299 24.16C201.061 22.9227 199.12 22.304 196.475 22.304H187.451V35.872ZM218.865 60C218.524 60 218.204 59.872 217.905 59.616C217.649 59.36 217.521 59.04 217.521 58.656C217.521 58.4853 217.564 58.2933 217.649 58.08L233.073 16.8C233.201 16.3733 233.436 16.0107 233.777 15.712C234.161 15.3707 234.673 15.2 235.313 15.2H242.289C242.929 15.2 243.42 15.3707 243.761 15.712C244.102 16.0107 244.358 16.3733 244.529 16.8L259.953 58.08C259.996 58.2933 260.017 58.4853 260.017 58.656C260.017 59.04 259.889 59.36 259.633 59.616C259.377 59.872 259.078 60 258.737 60H253.169C252.572 60 252.124 59.872 251.825 59.616C251.569 59.3173 251.398 59.04 251.313 58.784L248.305 50.976H229.297L226.289 58.784C226.204 59.04 226.012 59.3173 225.713 59.616C225.457 59.872 225.03 60 224.433 60H218.865ZM231.537 43.616H246.065L238.769 23.84L231.537 43.616ZM274.429 60C274.002 60 273.64 59.8507 273.341 59.552C273.042 59.2533 272.893 58.8907 272.893 58.464V44L257.789 17.248C257.746 17.1627 257.704 17.056 257.661 16.928C257.618 16.8 257.597 16.672 257.597 16.544C257.597 16.16 257.725 15.84 257.981 15.584C258.237 15.328 258.536 15.2 258.877 15.2H264.573C265.085 15.2 265.49 15.328 265.789 15.584C266.13 15.84 266.365 16.1173 266.493 16.416L277.373 35.04L288.189 16.416C288.36 16.1173 288.594 15.84 288.893 15.584C289.234 15.328 289.661 15.2 290.173 15.2H295.805C296.189 15.2 296.509 15.328 296.765 15.584C297.021 15.84 297.149 16.16 297.149 16.544C297.149 16.672 297.128 16.8 297.085 16.928C297.085 17.056 297.042 17.1627 296.957 17.248L281.853 44V58.464C281.853 58.8907 281.704 59.2533 281.405 59.552C281.106 59.8507 280.722 60 280.253 60H274.429Z" fill="white"/>
</svg>
