<svg width="189" height="385" viewBox="0 0 189 385" fill="none" xmlns="http://www.w3.org/2000/svg">
<rect width="189" height="385" rx="18" fill="#12171D"/>
<g clip-path="url(#clip0_10_440)">
<path d="M138 65.8162C138 65.3654 137.635 65 137.184 65H122.816C122.365 65 122 65.3654 122 65.8162V75.6799C122 76.1307 122.365 76.4961 122.816 76.4961H137.184C137.635 76.4961 138 76.1307 138 75.6799V65.8162ZM136.368 67.4785C136.368 67.7187 136.262 67.9468 136.079 68.1026L132.95 70.7675L136.082 73.435C136.263 73.5891 136.368 73.8149 136.368 74.0526C136.368 74.5006 136.004 74.8638 135.556 74.8638H135.549C135.351 74.8638 135.159 74.7932 135.008 74.6647L131.69 71.8395L130.529 72.8283C130.377 72.9581 130.188 73.023 130 73.023C129.812 73.023 129.623 72.9581 129.471 72.8283L128.309 71.8395L124.997 74.6601C124.842 74.7916 124.646 74.8638 124.444 74.8638C123.996 74.8638 123.632 74.5006 123.632 74.0526C123.632 73.8148 123.737 73.5891 123.918 73.4349L127.05 70.7674L123.964 68.1394C123.754 67.9603 123.632 67.6978 123.632 67.4215C123.632 66.9857 123.986 66.6323 124.422 66.6323C124.609 66.6323 124.79 66.6991 124.933 66.8207L129.742 70.9151C129.891 71.0417 130.109 71.0417 130.258 70.9151L135.067 66.8207C135.21 66.6991 135.391 66.6323 135.578 66.6323C136.014 66.6323 136.368 66.9856 136.368 67.4215V67.4785Z" fill="white"/>
</g>
<path d="M53.428 76C53.3347 76 53.2553 75.9673 53.19 75.902C53.1247 75.8367 53.092 75.7573 53.092 75.664V66.536C53.092 66.4427 53.1247 66.3633 53.19 66.298C53.2553 66.2327 53.3347 66.2 53.428 66.2H54.73C54.8233 66.2 54.9027 66.2327 54.968 66.298C55.0333 66.3633 55.066 66.4427 55.066 66.536V74.334H59.504C59.6067 74.334 59.6907 74.3667 59.756 74.432C59.8213 74.4973 59.854 74.5813 59.854 74.684V75.664C59.854 75.7573 59.8213 75.8367 59.756 75.902C59.6907 75.9673 59.6067 76 59.504 76H53.428ZM61.5491 76C61.4558 76 61.3764 75.9673 61.3111 75.902C61.2458 75.8367 61.2131 75.7573 61.2131 75.664V66.536C61.2131 66.4427 61.2458 66.3633 61.3111 66.298C61.3764 66.2327 61.4558 66.2 61.5491 66.2H62.8651C62.9678 66.2 63.0471 66.2327 63.1031 66.298C63.1684 66.3633 63.2011 66.4427 63.2011 66.536V75.664C63.2011 75.7573 63.1684 75.8367 63.1031 75.902C63.0471 75.9673 62.9678 76 62.8651 76H61.5491ZM67.8887 76C67.7954 76 67.716 75.9673 67.6507 75.902C67.5854 75.8367 67.5527 75.7573 67.5527 75.664V67.922H64.9627C64.8694 67.922 64.79 67.8893 64.7247 67.824C64.6594 67.7587 64.6267 67.6793 64.6267 67.586V66.55C64.6267 66.4473 64.6594 66.3633 64.7247 66.298C64.79 66.2327 64.8694 66.2 64.9627 66.2H72.1027C72.2054 66.2 72.2894 66.2327 72.3547 66.298C72.42 66.3633 72.4527 66.4473 72.4527 66.55V67.586C72.4527 67.6793 72.42 67.7587 72.3547 67.824C72.2894 67.8893 72.2054 67.922 72.1027 67.922H69.5267V75.664C69.5267 75.7573 69.494 75.8367 69.4287 75.902C69.3634 75.9673 69.2794 76 69.1767 76H67.8887ZM76.3653 76C76.2719 76 76.1926 75.9673 76.1273 75.902C76.0619 75.8367 76.0293 75.7573 76.0293 75.664V67.922H73.4393C73.3459 67.922 73.2666 67.8893 73.2013 67.824C73.1359 67.7587 73.1033 67.6793 73.1033 67.586V66.55C73.1033 66.4473 73.1359 66.3633 73.2013 66.298C73.2666 66.2327 73.3459 66.2 73.4393 66.2H80.5793C80.6819 66.2 80.7659 66.2327 80.8313 66.298C80.8966 66.3633 80.9293 66.4473 80.9293 66.55V67.586C80.9293 67.6793 80.8966 67.7587 80.8313 67.824C80.7659 67.8893 80.6819 67.922 80.5793 67.922H78.0033V75.664C78.0033 75.7573 77.9706 75.8367 77.9053 75.902C77.8399 75.9673 77.7559 76 77.6533 76H76.3653ZM82.6858 76C82.5925 76 82.5131 75.9673 82.4478 75.902C82.3825 75.8367 82.3498 75.7573 82.3498 75.664V66.55C82.3498 66.4473 82.3825 66.3633 82.4478 66.298C82.5131 66.2327 82.5925 66.2 82.6858 66.2H88.8458C88.9485 66.2 89.0325 66.2327 89.0978 66.298C89.1631 66.3633 89.1958 66.4473 89.1958 66.55V67.474C89.1958 67.5673 89.1631 67.6467 89.0978 67.712C89.0325 67.7773 88.9485 67.81 88.8458 67.81H84.2398V70.288H88.5378C88.6405 70.288 88.7245 70.3207 88.7898 70.386C88.8551 70.442 88.8878 70.5213 88.8878 70.624V71.492C88.8878 71.5947 88.8551 71.6787 88.7898 71.744C88.7245 71.8 88.6405 71.828 88.5378 71.828H84.2398V74.39H88.9578C89.0605 74.39 89.1445 74.4227 89.2098 74.488C89.2751 74.5533 89.3078 74.6373 89.3078 74.74V75.664C89.3078 75.7573 89.2751 75.8367 89.2098 75.902C89.1445 75.9673 89.0605 76 88.9578 76H82.6858ZM91.3948 76C91.3015 76 91.2221 75.9673 91.1568 75.902C91.0915 75.8367 91.0588 75.7573 91.0588 75.664V66.55C91.0588 66.4473 91.0915 66.3633 91.1568 66.298C91.2221 66.2327 91.3015 66.2 91.3948 66.2H95.0208C96.1501 66.2 97.0415 66.4613 97.6948 66.984C98.3481 67.5067 98.6748 68.2673 98.6748 69.266C98.6748 69.9567 98.5021 70.5307 98.1568 70.988C97.8208 71.4453 97.3681 71.7767 96.7988 71.982L98.8428 75.552C98.8708 75.608 98.8848 75.6593 98.8848 75.706C98.8848 75.79 98.8521 75.86 98.7868 75.916C98.7308 75.972 98.6655 76 98.5908 76H97.3168C97.1581 76 97.0368 75.958 96.9528 75.874C96.8688 75.79 96.8035 75.706 96.7568 75.622L94.9508 72.304H93.0048V75.664C93.0048 75.7573 92.9721 75.8367 92.9068 75.902C92.8508 75.9673 92.7715 76 92.6688 76H91.3948ZM93.0048 70.722H94.9788C95.5481 70.722 95.9728 70.596 96.2528 70.344C96.5328 70.0827 96.6728 69.7187 96.6728 69.252C96.6728 68.7853 96.5328 68.4213 96.2528 68.16C95.9821 67.8893 95.5575 67.754 94.9788 67.754H93.0048V70.722ZM99.8767 76C99.8021 76 99.7321 75.972 99.6667 75.916C99.6107 75.86 99.5827 75.79 99.5827 75.706C99.5827 75.6687 99.5921 75.6267 99.6107 75.58L102.985 66.55C103.013 66.4567 103.064 66.3773 103.139 66.312C103.223 66.2373 103.335 66.2 103.475 66.2H105.001C105.141 66.2 105.248 66.2373 105.323 66.312C105.397 66.3773 105.453 66.4567 105.491 66.55L108.865 75.58C108.874 75.6267 108.879 75.6687 108.879 75.706C108.879 75.79 108.851 75.86 108.795 75.916C108.739 75.972 108.673 76 108.599 76H107.381C107.25 76 107.152 75.972 107.087 75.916C107.031 75.8507 106.993 75.79 106.975 75.734L106.317 74.026H102.159L101.501 75.734C101.482 75.79 101.44 75.8507 101.375 75.916C101.319 75.972 101.225 76 101.095 76H99.8767ZM102.649 72.416H105.827L104.231 68.09L102.649 72.416ZM112.031 76C111.938 76 111.859 75.9673 111.793 75.902C111.728 75.8367 111.695 75.7573 111.695 75.664V72.5L108.391 66.648C108.382 66.6293 108.373 66.606 108.363 66.578C108.354 66.55 108.349 66.522 108.349 66.494C108.349 66.41 108.377 66.34 108.433 66.284C108.489 66.228 108.555 66.2 108.629 66.2H109.875C109.987 66.2 110.076 66.228 110.141 66.284C110.216 66.34 110.267 66.4007 110.295 66.466L112.675 70.54L115.041 66.466C115.079 66.4007 115.13 66.34 115.195 66.284C115.27 66.228 115.363 66.2 115.475 66.2H116.707C116.791 66.2 116.861 66.228 116.917 66.284C116.973 66.34 117.001 66.41 117.001 66.494C117.001 66.522 116.997 66.55 116.987 66.578C116.987 66.606 116.978 66.6293 116.959 66.648L113.655 72.5V75.664C113.655 75.7573 113.623 75.8367 113.557 75.902C113.492 75.9673 113.408 76 113.305 76H112.031Z" fill="white"/>
<rect x="31" y="200" width="128" height="20" rx="10" fill="#171B26"/>
<rect x="31" y="160" width="128" height="20" rx="10" fill="#171B26"/>
<path d="M40.88 173C40.8213 173 40.776 172.984 40.744 172.952C40.712 172.915 40.696 172.869 40.696 172.816V167.584C40.696 167.531 40.712 167.488 40.744 167.456C40.776 167.419 40.8213 167.4 40.88 167.4H41.304C41.3573 167.4 41.4 167.419 41.432 167.456C41.464 167.488 41.48 167.531 41.48 167.584V172.304H44.144C44.2027 172.304 44.248 172.323 44.28 172.36C44.312 172.392 44.328 172.437 44.328 172.496V172.816C44.328 172.869 44.312 172.915 44.28 172.952C44.248 172.984 44.2027 173 44.144 173H40.88ZM46.7179 173.08C46.3125 173.08 45.9739 173.003 45.7019 172.848C45.4299 172.693 45.2219 172.48 45.0779 172.208C44.9339 171.931 44.8539 171.616 44.8379 171.264C44.8325 171.173 44.8299 171.059 44.8299 170.92C44.8299 170.776 44.8325 170.661 44.8379 170.576C44.8539 170.219 44.9339 169.904 45.0779 169.632C45.2272 169.36 45.4379 169.147 45.7099 168.992C45.9819 168.837 46.3179 168.76 46.7179 168.76C47.1179 168.76 47.4539 168.837 47.7259 168.992C47.9979 169.147 48.2059 169.36 48.3499 169.632C48.4992 169.904 48.5819 170.219 48.5979 170.576C48.6032 170.661 48.6059 170.776 48.6059 170.92C48.6059 171.059 48.6032 171.173 48.5979 171.264C48.5819 171.616 48.5019 171.931 48.3579 172.208C48.2139 172.48 48.0059 172.693 47.7339 172.848C47.4619 173.003 47.1232 173.08 46.7179 173.08ZM46.7179 172.464C47.0485 172.464 47.3125 172.36 47.5099 172.152C47.7072 171.939 47.8139 171.629 47.8299 171.224C47.8352 171.144 47.8379 171.043 47.8379 170.92C47.8379 170.797 47.8352 170.696 47.8299 170.616C47.8139 170.211 47.7072 169.904 47.5099 169.696C47.3125 169.483 47.0485 169.376 46.7179 169.376C46.3872 169.376 46.1205 169.483 45.9179 169.696C45.7205 169.904 45.6165 170.211 45.6059 170.616C45.6005 170.696 45.5979 170.797 45.5979 170.92C45.5979 171.043 45.6005 171.144 45.6059 171.224C45.6165 171.629 45.7205 171.939 45.9179 172.152C46.1205 172.36 46.3872 172.464 46.7179 172.464ZM51.3116 174.76C50.949 174.76 50.6503 174.712 50.4156 174.616C50.1863 174.52 50.005 174.403 49.8716 174.264C49.7436 174.131 49.6503 173.995 49.5916 173.856C49.5383 173.723 49.509 173.616 49.5036 173.536C49.4983 173.483 49.5143 173.437 49.5516 173.4C49.5943 173.363 49.6396 173.344 49.6876 173.344H50.0716C50.1196 173.344 50.1596 173.355 50.1916 173.376C50.2236 173.397 50.2503 173.443 50.2716 173.512C50.3036 173.592 50.3516 173.68 50.4156 173.776C50.4796 173.877 50.5783 173.963 50.7116 174.032C50.845 174.107 51.0316 174.144 51.2716 174.144C51.5223 174.144 51.733 174.109 51.9036 174.04C52.0743 173.976 52.2023 173.859 52.2876 173.688C52.3783 173.523 52.4236 173.293 52.4236 173V172.456C52.2956 172.621 52.1276 172.76 51.9196 172.872C51.7116 172.979 51.4503 173.032 51.1356 173.032C50.837 173.032 50.581 172.981 50.3676 172.88C50.1543 172.773 49.9783 172.632 49.8396 172.456C49.7063 172.275 49.605 172.069 49.5356 171.84C49.4716 171.611 49.4343 171.371 49.4236 171.12C49.4183 170.971 49.4183 170.824 49.4236 170.68C49.4343 170.429 49.4716 170.189 49.5356 169.96C49.605 169.731 49.7063 169.525 49.8396 169.344C49.9783 169.163 50.1543 169.021 50.3676 168.92C50.581 168.813 50.837 168.76 51.1356 168.76C51.4556 168.76 51.7196 168.821 51.9276 168.944C52.141 169.061 52.3143 169.205 52.4476 169.376V169.032C52.4476 168.979 52.4636 168.933 52.4956 168.896C52.533 168.859 52.5783 168.84 52.6316 168.84H52.9996C53.053 168.84 53.0983 168.859 53.1356 168.896C53.173 168.933 53.1916 168.979 53.1916 169.032V172.912C53.1916 173.269 53.1303 173.587 53.0076 173.864C52.8903 174.141 52.693 174.36 52.4156 174.52C52.1436 174.68 51.7756 174.76 51.3116 174.76ZM51.2956 172.392C51.5623 172.392 51.7756 172.331 51.9356 172.208C52.101 172.085 52.221 171.931 52.2956 171.744C52.3756 171.557 52.4183 171.368 52.4236 171.176C52.429 171.101 52.4316 171.011 52.4316 170.904C52.4316 170.792 52.429 170.699 52.4236 170.624C52.4183 170.432 52.3756 170.243 52.2956 170.056C52.221 169.869 52.101 169.715 51.9356 169.592C51.7756 169.469 51.5623 169.408 51.2956 169.408C51.029 169.408 50.8156 169.469 50.6556 169.592C50.4956 169.709 50.381 169.867 50.3116 170.064C50.2423 170.256 50.2023 170.464 50.1916 170.688C50.1863 170.827 50.1863 170.968 50.1916 171.112C50.2023 171.336 50.2423 171.547 50.3116 171.744C50.381 171.936 50.4956 172.093 50.6556 172.216C50.8156 172.333 51.029 172.392 51.2956 172.392ZM54.5651 173C54.5117 173 54.4664 172.984 54.4291 172.952C54.3971 172.915 54.3811 172.869 54.3811 172.816V169.024C54.3811 168.971 54.3971 168.928 54.4291 168.896C54.4664 168.859 54.5117 168.84 54.5651 168.84H54.9491C55.0024 168.84 55.0451 168.859 55.0771 168.896C55.1091 168.928 55.1251 168.971 55.1251 169.024V172.816C55.1251 172.869 55.1091 172.915 55.0771 172.952C55.0451 172.984 55.0024 173 54.9491 173H54.5651ZM54.5011 168.064C54.4477 168.064 54.4024 168.048 54.3651 168.016C54.3331 167.979 54.3171 167.933 54.3171 167.88V167.448C54.3171 167.395 54.3331 167.352 54.3651 167.32C54.4024 167.283 54.4477 167.264 54.5011 167.264H55.0051C55.0584 167.264 55.1011 167.283 55.1331 167.32C55.1704 167.352 55.1891 167.395 55.1891 167.448V167.88C55.1891 167.933 55.1704 167.979 55.1331 168.016C55.1011 168.048 55.0584 168.064 55.0051 168.064H54.5011ZM56.5807 173C56.5274 173 56.482 172.984 56.4447 172.952C56.4127 172.915 56.3967 172.869 56.3967 172.816V169.024C56.3967 168.971 56.4127 168.928 56.4447 168.896C56.482 168.859 56.5274 168.84 56.5807 168.84H56.9567C57.01 168.84 57.0527 168.859 57.0847 168.896C57.122 168.928 57.1407 168.971 57.1407 169.024V169.376C57.2794 169.195 57.4527 169.048 57.6607 168.936C57.874 168.819 58.146 168.76 58.4767 168.76C58.8234 168.76 59.1167 168.837 59.3567 168.992C59.602 169.141 59.786 169.352 59.9087 169.624C60.0314 169.891 60.0927 170.203 60.0927 170.56V172.816C60.0927 172.869 60.0767 172.915 60.0447 172.952C60.0127 172.984 59.97 173 59.9167 173H59.5167C59.4634 173 59.418 172.984 59.3807 172.952C59.3487 172.915 59.3327 172.869 59.3327 172.816V170.6C59.3327 170.227 59.242 169.936 59.0607 169.728C58.8794 169.515 58.6127 169.408 58.2607 169.408C57.93 169.408 57.6634 169.515 57.4607 169.728C57.2634 169.936 57.1647 170.227 57.1647 170.6V172.816C57.1647 172.869 57.146 172.915 57.1087 172.952C57.0767 172.984 57.034 173 56.9807 173H56.5807Z" fill="#808087"/>
<path d="M40.88 213C40.8213 213 40.776 212.984 40.744 212.952C40.712 212.915 40.696 212.869 40.696 212.816V207.592C40.696 207.533 40.712 207.488 40.744 207.456C40.776 207.419 40.8213 207.4 40.88 207.4H42.912C43.3067 207.4 43.648 207.464 43.936 207.592C44.2293 207.72 44.456 207.912 44.616 208.168C44.776 208.419 44.856 208.733 44.856 209.112C44.856 209.491 44.776 209.805 44.616 210.056C44.456 210.307 44.2293 210.496 43.936 210.624C43.648 210.752 43.3067 210.816 42.912 210.816H41.496V212.816C41.496 212.869 41.4773 212.915 41.44 212.952C41.408 212.984 41.3627 213 41.304 213H40.88ZM41.488 210.144H42.872C43.2667 210.144 43.5627 210.056 43.76 209.88C43.9573 209.704 44.056 209.448 44.056 209.112C44.056 208.781 43.96 208.525 43.768 208.344C43.576 208.163 43.2773 208.072 42.872 208.072H41.488V210.144ZM46.8067 213.08C46.54 213.08 46.2974 213.027 46.0787 212.92C45.86 212.813 45.684 212.669 45.5507 212.488C45.4174 212.307 45.3507 212.101 45.3507 211.872C45.3507 211.504 45.5 211.211 45.7987 210.992C46.0974 210.773 46.4867 210.629 46.9667 210.56L48.1587 210.392V210.16C48.1587 209.904 48.084 209.704 47.9347 209.56C47.7907 209.416 47.5534 209.344 47.2227 209.344C46.9827 209.344 46.788 209.392 46.6387 209.488C46.4947 209.584 46.3934 209.707 46.3347 209.856C46.3027 209.936 46.2467 209.976 46.1667 209.976H45.8067C45.748 209.976 45.7027 209.96 45.6707 209.928C45.644 209.891 45.6307 209.848 45.6307 209.8C45.6307 209.72 45.66 209.621 45.7187 209.504C45.7827 209.387 45.8787 209.272 46.0067 209.16C46.1347 209.048 46.2974 208.955 46.4947 208.88C46.6974 208.8 46.9427 208.76 47.2307 208.76C47.5507 208.76 47.82 208.803 48.0387 208.888C48.2574 208.968 48.428 209.077 48.5507 209.216C48.6787 209.355 48.7694 209.512 48.8227 209.688C48.8814 209.864 48.9107 210.043 48.9107 210.224V212.816C48.9107 212.869 48.892 212.915 48.8547 212.952C48.8227 212.984 48.78 213 48.7267 213H48.3587C48.3 213 48.2547 212.984 48.2227 212.952C48.1907 212.915 48.1747 212.869 48.1747 212.816V212.472C48.1054 212.568 48.012 212.664 47.8947 212.76C47.7774 212.851 47.6307 212.928 47.4547 212.992C47.2787 213.051 47.0627 213.08 46.8067 213.08ZM46.9747 212.48C47.1934 212.48 47.3934 212.435 47.5747 212.344C47.756 212.248 47.8974 212.101 47.9987 211.904C48.1054 211.707 48.1587 211.459 48.1587 211.16V210.936L47.2307 211.072C46.852 211.125 46.5667 211.216 46.3747 211.344C46.1827 211.467 46.0867 211.624 46.0867 211.816C46.0867 211.965 46.1294 212.091 46.2147 212.192C46.3054 212.288 46.4174 212.36 46.5507 212.408C46.6894 212.456 46.8307 212.48 46.9747 212.48ZM51.5008 213.08C51.2021 213.08 50.9461 213.043 50.7328 212.968C50.5194 212.893 50.3461 212.803 50.2128 212.696C50.0794 212.589 49.9781 212.483 49.9088 212.376C49.8448 212.269 49.8101 212.184 49.8048 212.12C49.7994 212.061 49.8181 212.016 49.8608 211.984C49.9034 211.952 49.9461 211.936 49.9888 211.936H50.3408C50.3728 211.936 50.3968 211.941 50.4128 211.952C50.4341 211.957 50.4608 211.979 50.4928 212.016C50.5621 212.091 50.6394 212.165 50.7248 212.24C50.8101 212.315 50.9141 212.376 51.0368 212.424C51.1648 212.472 51.3221 212.496 51.5088 212.496C51.7808 212.496 52.0048 212.445 52.1808 212.344C52.3568 212.237 52.4448 212.083 52.4448 211.88C52.4448 211.747 52.4074 211.64 52.3328 211.56C52.2634 211.48 52.1354 211.408 51.9488 211.344C51.7674 211.28 51.5168 211.213 51.1968 211.144C50.8768 211.069 50.6234 210.979 50.4368 210.872C50.2501 210.76 50.1168 210.629 50.0368 210.48C49.9568 210.325 49.9168 210.152 49.9168 209.96C49.9168 209.763 49.9754 209.573 50.0928 209.392C50.2101 209.205 50.3808 209.053 50.6048 208.936C50.8341 208.819 51.1194 208.76 51.4608 208.76C51.7381 208.76 51.9754 208.795 52.1728 208.864C52.3701 208.933 52.5328 209.021 52.6608 209.128C52.7888 209.229 52.8848 209.331 52.9488 209.432C53.0128 209.533 53.0474 209.619 53.0528 209.688C53.0581 209.741 53.0421 209.787 53.0048 209.824C52.9674 209.856 52.9248 209.872 52.8768 209.872H52.5408C52.5034 209.872 52.4714 209.864 52.4448 209.848C52.4234 209.832 52.4021 209.813 52.3808 209.792C52.3274 209.723 52.2634 209.653 52.1888 209.584C52.1194 209.515 52.0261 209.459 51.9088 209.416C51.7968 209.368 51.6474 209.344 51.4608 209.344C51.1941 209.344 50.9941 209.4 50.8608 209.512C50.7274 209.624 50.6608 209.765 50.6608 209.936C50.6608 210.037 50.6901 210.128 50.7488 210.208C50.8074 210.288 50.9194 210.36 51.0848 210.424C51.2501 210.488 51.4954 210.557 51.8207 210.632C52.1728 210.701 52.4501 210.795 52.6528 210.912C52.8554 211.029 52.9994 211.165 53.0848 211.32C53.1701 211.475 53.2128 211.653 53.2128 211.856C53.2128 212.08 53.1461 212.285 53.0128 212.472C52.8848 212.659 52.6928 212.808 52.4368 212.92C52.1861 213.027 51.8741 213.08 51.5008 213.08ZM55.5789 213.08C55.2802 213.08 55.0242 213.043 54.8109 212.968C54.5975 212.893 54.4242 212.803 54.2909 212.696C54.1575 212.589 54.0562 212.483 53.9869 212.376C53.9229 212.269 53.8882 212.184 53.8829 212.12C53.8775 212.061 53.8962 212.016 53.9389 211.984C53.9815 211.952 54.0242 211.936 54.0669 211.936H54.4189C54.4509 211.936 54.4749 211.941 54.4909 211.952C54.5122 211.957 54.5389 211.979 54.5709 212.016C54.6402 212.091 54.7175 212.165 54.8029 212.24C54.8882 212.315 54.9922 212.376 55.1149 212.424C55.2429 212.472 55.4002 212.496 55.5869 212.496C55.8589 212.496 56.0829 212.445 56.2589 212.344C56.4349 212.237 56.5229 212.083 56.5229 211.88C56.5229 211.747 56.4855 211.64 56.4109 211.56C56.3415 211.48 56.2135 211.408 56.0269 211.344C55.8455 211.28 55.5949 211.213 55.2749 211.144C54.9549 211.069 54.7015 210.979 54.5149 210.872C54.3282 210.76 54.1949 210.629 54.1149 210.48C54.0349 210.325 53.9949 210.152 53.9949 209.96C53.9949 209.763 54.0535 209.573 54.1709 209.392C54.2882 209.205 54.4589 209.053 54.6829 208.936C54.9122 208.819 55.1975 208.76 55.5389 208.76C55.8162 208.76 56.0535 208.795 56.2509 208.864C56.4482 208.933 56.6109 209.021 56.7389 209.128C56.8669 209.229 56.9629 209.331 57.0269 209.432C57.0909 209.533 57.1255 209.619 57.1309 209.688C57.1362 209.741 57.1202 209.787 57.0829 209.824C57.0455 209.856 57.0029 209.872 56.9549 209.872H56.6189C56.5815 209.872 56.5495 209.864 56.5229 209.848C56.5015 209.832 56.4802 209.813 56.4589 209.792C56.4055 209.723 56.3415 209.653 56.2669 209.584C56.1975 209.515 56.1042 209.459 55.9869 209.416C55.8749 209.368 55.7255 209.344 55.5389 209.344C55.2722 209.344 55.0722 209.4 54.9389 209.512C54.8055 209.624 54.7389 209.765 54.7389 209.936C54.7389 210.037 54.7682 210.128 54.8269 210.208C54.8855 210.288 54.9975 210.36 55.1629 210.424C55.3282 210.488 55.5735 210.557 55.8989 210.632C56.2509 210.701 56.5282 210.795 56.7309 210.912C56.9335 211.029 57.0775 211.165 57.1629 211.32C57.2482 211.475 57.2909 211.653 57.2909 211.856C57.2909 212.08 57.2242 212.285 57.0909 212.472C56.9629 212.659 56.7709 212.808 56.5149 212.92C56.2642 213.027 55.9522 213.08 55.5789 213.08ZM59.2116 213C59.1423 213 59.089 212.984 59.0516 212.952C59.0143 212.915 58.9823 212.864 58.9556 212.8L57.8196 209.088C57.809 209.061 57.8036 209.035 57.8036 209.008C57.8036 208.96 57.8196 208.92 57.8516 208.888C57.889 208.856 57.929 208.84 57.9716 208.84H58.3236C58.3823 208.84 58.4276 208.856 58.4596 208.888C58.4916 208.92 58.513 208.949 58.5236 208.976L59.4116 211.992L60.3636 209.008C60.3743 208.971 60.3956 208.933 60.4276 208.896C60.465 208.859 60.5183 208.84 60.5876 208.84H60.8596C60.929 208.84 60.9823 208.859 61.0196 208.896C61.057 208.933 61.0783 208.971 61.0836 209.008L62.0356 211.992L62.9236 208.976C62.929 208.949 62.9476 208.92 62.9796 208.888C63.0116 208.856 63.057 208.84 63.1156 208.84H63.4676C63.5156 208.84 63.5556 208.856 63.5876 208.888C63.6196 208.92 63.6356 208.96 63.6356 209.008C63.6356 209.035 63.6303 209.061 63.6196 209.088L62.4836 212.8C62.4676 212.864 62.4383 212.915 62.3956 212.952C62.3583 212.984 62.3023 213 62.2276 213H61.9156C61.8463 213 61.7876 212.984 61.7396 212.952C61.697 212.915 61.6676 212.864 61.6516 212.8L60.7236 209.936L59.7956 212.8C59.7743 212.864 59.7423 212.915 59.6996 212.952C59.657 212.984 59.5983 213 59.5236 213H59.2116ZM66.1163 213.08C65.711 213.08 65.3723 213.003 65.1003 212.848C64.8283 212.693 64.6203 212.48 64.4763 212.208C64.3323 211.931 64.2523 211.616 64.2363 211.264C64.231 211.173 64.2283 211.059 64.2283 210.92C64.2283 210.776 64.231 210.661 64.2363 210.576C64.2523 210.219 64.3323 209.904 64.4763 209.632C64.6256 209.36 64.8363 209.147 65.1083 208.992C65.3803 208.837 65.7163 208.76 66.1163 208.76C66.5163 208.76 66.8523 208.837 67.1243 208.992C67.3963 209.147 67.6043 209.36 67.7483 209.632C67.8976 209.904 67.9803 210.219 67.9963 210.576C68.0016 210.661 68.0043 210.776 68.0043 210.92C68.0043 211.059 68.0016 211.173 67.9963 211.264C67.9803 211.616 67.9003 211.931 67.7563 212.208C67.6123 212.48 67.4043 212.693 67.1323 212.848C66.8603 213.003 66.5216 213.08 66.1163 213.08ZM66.1163 212.464C66.447 212.464 66.711 212.36 66.9083 212.152C67.1056 211.939 67.2123 211.629 67.2283 211.224C67.2336 211.144 67.2363 211.043 67.2363 210.92C67.2363 210.797 67.2336 210.696 67.2283 210.616C67.2123 210.211 67.1056 209.904 66.9083 209.696C66.711 209.483 66.447 209.376 66.1163 209.376C65.7856 209.376 65.519 209.483 65.3163 209.696C65.119 209.904 65.015 210.211 65.0043 210.616C64.999 210.696 64.9963 210.797 64.9963 210.92C64.9963 211.043 64.999 211.144 65.0043 211.224C65.015 211.629 65.119 211.939 65.3163 212.152C65.519 212.36 65.7856 212.464 66.1163 212.464ZM69.1901 213C69.1367 213 69.0914 212.984 69.0541 212.952C69.0221 212.915 69.0061 212.869 69.0061 212.816V209.032C69.0061 208.979 69.0221 208.933 69.0541 208.896C69.0914 208.859 69.1367 208.84 69.1901 208.84H69.5581C69.6114 208.84 69.6567 208.859 69.6941 208.896C69.7314 208.933 69.7501 208.979 69.7501 209.032V209.384C69.8567 209.203 70.0034 209.067 70.1901 208.976C70.3767 208.885 70.6007 208.84 70.8621 208.84H71.1821C71.2354 208.84 71.2781 208.859 71.3101 208.896C71.3421 208.928 71.3581 208.971 71.3581 209.024V209.352C71.3581 209.405 71.3421 209.448 71.3101 209.48C71.2781 209.512 71.2354 209.528 71.1821 209.528H70.7021C70.4141 209.528 70.1874 209.613 70.0221 209.784C69.8567 209.949 69.7741 210.176 69.7741 210.464V212.816C69.7741 212.869 69.7554 212.915 69.7181 212.952C69.6807 212.984 69.6354 213 69.5821 213H69.1901ZM73.4792 213.08C73.1859 213.08 72.9325 213.029 72.7192 212.928C72.5059 212.821 72.3299 212.68 72.1912 212.504C72.0579 212.323 71.9565 212.117 71.8872 211.888C71.8232 211.659 71.7859 211.416 71.7752 211.16C71.7699 211.075 71.7672 210.995 71.7672 210.92C71.7672 210.845 71.7699 210.765 71.7752 210.68C71.7859 210.429 71.8232 210.189 71.8872 209.96C71.9565 209.731 72.0579 209.525 72.1912 209.344C72.3299 209.163 72.5059 209.021 72.7192 208.92C72.9325 208.813 73.1859 208.76 73.4792 208.76C73.7939 208.76 74.0552 208.816 74.2632 208.928C74.4712 209.04 74.6419 209.179 74.7752 209.344V207.504C74.7752 207.451 74.7912 207.408 74.8232 207.376C74.8605 207.339 74.9059 207.32 74.9592 207.32H75.3432C75.3965 207.32 75.4392 207.339 75.4712 207.376C75.5085 207.408 75.5272 207.451 75.5272 207.504V212.816C75.5272 212.869 75.5085 212.915 75.4712 212.952C75.4392 212.984 75.3965 213 75.3432 213H74.9832C74.9245 213 74.8792 212.984 74.8472 212.952C74.8152 212.915 74.7992 212.869 74.7992 212.816V212.48C74.6659 212.651 74.4925 212.795 74.2792 212.912C74.0659 213.024 73.7992 213.08 73.4792 213.08ZM73.6472 212.432C73.9139 212.432 74.1272 212.371 74.2872 212.248C74.4472 212.125 74.5672 211.971 74.6472 211.784C74.7272 211.592 74.7699 211.397 74.7752 211.2C74.7805 211.115 74.7832 211.013 74.7832 210.896C74.7832 210.773 74.7805 210.669 74.7752 210.584C74.7699 210.397 74.7245 210.213 74.6392 210.032C74.5592 209.851 74.4365 209.701 74.2712 209.584C74.1112 209.467 73.9032 209.408 73.6472 209.408C73.3752 209.408 73.1592 209.469 72.9992 209.592C72.8392 209.709 72.7245 209.867 72.6552 210.064C72.5859 210.256 72.5459 210.464 72.5352 210.688C72.5299 210.843 72.5299 210.997 72.5352 211.152C72.5459 211.376 72.5859 211.587 72.6552 211.784C72.7245 211.976 72.8392 212.133 72.9992 212.256C73.1592 212.373 73.3752 212.432 73.6472 212.432Z" fill="#808087"/>
<rect x="47" y="240" width="96" height="20" rx="6" fill="#1F2734"/>
<path d="M82.21 253.1C81.59 253.1 81.07 253.01 80.65 252.83C80.2367 252.643 79.92 252.403 79.7 252.11C79.4867 251.81 79.3733 251.497 79.36 251.17C79.36 251.11 79.38 251.06 79.42 251.02C79.46 250.98 79.51 250.96 79.57 250.96H80.46C80.5467 250.96 80.61 250.98 80.65 251.02C80.6967 251.053 80.7367 251.097 80.77 251.15C80.81 251.277 80.8867 251.403 81 251.53C81.1133 251.65 81.2667 251.75 81.46 251.83C81.66 251.91 81.91 251.95 82.21 251.95C82.69 251.95 83.0467 251.87 83.28 251.71C83.52 251.55 83.64 251.333 83.64 251.06C83.64 250.867 83.5767 250.713 83.45 250.6C83.3233 250.48 83.1267 250.373 82.86 250.28C82.6 250.18 82.2533 250.077 81.82 249.97C81.32 249.85 80.9 249.707 80.56 249.54C80.2267 249.367 79.9733 249.15 79.8 248.89C79.6333 248.63 79.55 248.3 79.55 247.9C79.55 247.513 79.6533 247.17 79.86 246.87C80.0733 246.57 80.3733 246.333 80.76 246.16C81.1533 245.987 81.62 245.9 82.16 245.9C82.5933 245.9 82.9767 245.96 83.31 246.08C83.6433 246.193 83.92 246.347 84.14 246.54C84.36 246.727 84.5267 246.93 84.64 247.15C84.76 247.363 84.8233 247.573 84.83 247.78C84.83 247.833 84.81 247.883 84.77 247.93C84.7367 247.97 84.6867 247.99 84.62 247.99H83.69C83.6367 247.99 83.5833 247.977 83.53 247.95C83.4767 247.923 83.4333 247.873 83.4 247.8C83.36 247.593 83.23 247.417 83.01 247.27C82.79 247.123 82.5067 247.05 82.16 247.05C81.8 247.05 81.51 247.117 81.29 247.25C81.07 247.383 80.96 247.59 80.96 247.87C80.96 248.057 81.0133 248.213 81.12 248.34C81.2333 248.46 81.41 248.567 81.65 248.66C81.8967 248.753 82.22 248.853 82.62 248.96C83.1867 249.087 83.65 249.233 84.01 249.4C84.37 249.567 84.6333 249.78 84.8 250.04C84.9667 250.293 85.05 250.617 85.05 251.01C85.05 251.45 84.93 251.827 84.69 252.14C84.4567 252.447 84.1267 252.683 83.7 252.85C83.2733 253.017 82.7767 253.1 82.21 253.1ZM86.316 253C86.2493 253 86.1927 252.977 86.146 252.93C86.0993 252.883 86.076 252.827 86.076 252.76V248.04C86.076 247.973 86.0993 247.917 86.146 247.87C86.1927 247.823 86.2493 247.8 86.316 247.8H87.146C87.2193 247.8 87.276 247.823 87.316 247.87C87.3627 247.917 87.386 247.973 87.386 248.04V252.76C87.386 252.827 87.3627 252.883 87.316 252.93C87.276 252.977 87.2193 253 87.146 253H86.316ZM86.276 246.94C86.2027 246.94 86.1427 246.92 86.096 246.88C86.056 246.833 86.036 246.773 86.036 246.7V245.98C86.036 245.913 86.056 245.857 86.096 245.81C86.1427 245.763 86.2027 245.74 86.276 245.74H87.186C87.2593 245.74 87.3193 245.763 87.366 245.81C87.4127 245.857 87.436 245.913 87.436 245.98V246.7C87.436 246.773 87.4127 246.833 87.366 246.88C87.3193 246.92 87.2593 246.94 87.186 246.94H86.276ZM91.0627 255.2C90.5761 255.2 90.1761 255.137 89.8627 255.01C89.5494 254.883 89.3027 254.73 89.1227 254.55C88.9427 254.37 88.8127 254.19 88.7327 254.01C88.6594 253.837 88.6194 253.7 88.6127 253.6C88.6061 253.533 88.6261 253.473 88.6727 253.42C88.7261 253.373 88.7861 253.35 88.8527 253.35H89.7227C89.7894 253.35 89.8427 253.363 89.8827 253.39C89.9227 253.423 89.9561 253.48 89.9827 253.56C90.0227 253.647 90.0761 253.74 90.1427 253.84C90.2094 253.94 90.3094 254.023 90.4427 254.09C90.5827 254.163 90.7727 254.2 91.0127 254.2C91.2661 254.2 91.4794 254.163 91.6527 254.09C91.8261 254.017 91.9561 253.893 92.0427 253.72C92.1361 253.547 92.1827 253.307 92.1827 253V252.32C92.0227 252.513 91.8161 252.67 91.5627 252.79C91.3161 252.91 91.0094 252.97 90.6427 252.97C90.2827 252.97 89.9727 252.913 89.7127 252.8C89.4527 252.68 89.2361 252.517 89.0627 252.31C88.8894 252.097 88.7561 251.847 88.6627 251.56C88.5761 251.273 88.5261 250.957 88.5127 250.61C88.5061 250.43 88.5061 250.25 88.5127 250.07C88.5261 249.737 88.5761 249.427 88.6627 249.14C88.7494 248.853 88.8794 248.603 89.0527 248.39C89.2327 248.17 89.4527 248 89.7127 247.88C89.9727 247.76 90.2827 247.7 90.6427 247.7C91.0227 247.7 91.3427 247.773 91.6027 247.92C91.8627 248.06 92.0761 248.237 92.2427 248.45V248.05C92.2427 247.977 92.2661 247.917 92.3127 247.87C92.3594 247.823 92.4161 247.8 92.4827 247.8H93.2927C93.3594 247.8 93.4161 247.823 93.4627 247.87C93.5094 247.917 93.5327 247.977 93.5327 248.05L93.5427 252.87C93.5427 253.35 93.4527 253.763 93.2727 254.11C93.0927 254.457 92.8194 254.723 92.4527 254.91C92.0927 255.103 91.6294 255.2 91.0627 255.2ZM91.0127 251.91C91.2861 251.91 91.5061 251.85 91.6727 251.73C91.8394 251.61 91.9627 251.453 92.0427 251.26C92.1227 251.067 92.1694 250.87 92.1827 250.67C92.1894 250.583 92.1927 250.473 92.1927 250.34C92.1927 250.207 92.1894 250.1 92.1827 250.02C92.1694 249.813 92.1227 249.617 92.0427 249.43C91.9627 249.237 91.8394 249.08 91.6727 248.96C91.5061 248.833 91.2861 248.77 91.0127 248.77C90.7394 248.77 90.5194 248.833 90.3527 248.96C90.1861 249.08 90.0661 249.24 89.9927 249.44C89.9261 249.64 89.8861 249.86 89.8727 250.1C89.8594 250.26 89.8594 250.423 89.8727 250.59C89.8861 250.823 89.9261 251.043 89.9927 251.25C90.0661 251.45 90.1861 251.61 90.3527 251.73C90.5194 251.85 90.7394 251.91 91.0127 251.91ZM95.1148 253C95.0482 253 94.9915 252.977 94.9448 252.93C94.8982 252.883 94.8748 252.827 94.8748 252.76V248.04C94.8748 247.973 94.8982 247.917 94.9448 247.87C94.9915 247.823 95.0482 247.8 95.1148 247.8H95.9348C96.0015 247.8 96.0582 247.823 96.1048 247.87C96.1515 247.917 96.1748 247.973 96.1748 248.04V248.45C96.3482 248.237 96.5682 248.06 96.8348 247.92C97.1082 247.773 97.4448 247.7 97.8448 247.7C98.2515 247.7 98.6048 247.793 98.9048 247.98C99.2048 248.16 99.4348 248.417 99.5948 248.75C99.7615 249.083 99.8448 249.483 99.8448 249.95V252.76C99.8448 252.827 99.8215 252.883 99.7748 252.93C99.7282 252.977 99.6715 253 99.6048 253H98.7248C98.6582 253 98.6015 252.977 98.5548 252.93C98.5082 252.883 98.4848 252.827 98.4848 252.76V250.01C98.4848 249.623 98.3882 249.32 98.1948 249.1C98.0082 248.88 97.7348 248.77 97.3748 248.77C97.0282 248.77 96.7515 248.88 96.5448 249.1C96.3382 249.32 96.2348 249.623 96.2348 250.01V252.76C96.2348 252.827 96.2115 252.883 96.1648 252.93C96.1182 252.977 96.0615 253 95.9948 253H95.1148ZM103.76 253C103.694 253 103.637 252.977 103.59 252.93C103.544 252.883 103.52 252.827 103.52 252.76V246.24C103.52 246.173 103.544 246.117 103.59 246.07C103.637 246.023 103.694 246 103.76 246H104.7C104.774 246 104.83 246.023 104.87 246.07C104.917 246.117 104.94 246.173 104.94 246.24V252.76C104.94 252.827 104.917 252.883 104.87 252.93C104.83 252.977 104.774 253 104.7 253H103.76ZM106.629 253C106.562 253 106.505 252.977 106.459 252.93C106.412 252.883 106.389 252.827 106.389 252.76V248.04C106.389 247.973 106.412 247.917 106.459 247.87C106.505 247.823 106.562 247.8 106.629 247.8H107.449C107.515 247.8 107.572 247.823 107.619 247.87C107.665 247.917 107.689 247.973 107.689 248.04V248.45C107.862 248.237 108.082 248.06 108.349 247.92C108.622 247.773 108.959 247.7 109.359 247.7C109.765 247.7 110.119 247.793 110.419 247.98C110.719 248.16 110.949 248.417 111.109 248.75C111.275 249.083 111.359 249.483 111.359 249.95V252.76C111.359 252.827 111.335 252.883 111.289 252.93C111.242 252.977 111.185 253 111.119 253H110.239C110.172 253 110.115 252.977 110.069 252.93C110.022 252.883 109.999 252.827 109.999 252.76V250.01C109.999 249.623 109.902 249.32 109.709 249.1C109.522 248.88 109.249 248.77 108.889 248.77C108.542 248.77 108.265 248.88 108.059 249.1C107.852 249.32 107.749 249.623 107.749 250.01V252.76C107.749 252.827 107.725 252.883 107.679 252.93C107.632 252.977 107.575 253 107.509 253H106.629Z" fill="white"/>
<defs>
<clipPath id="clip0_10_440">
<rect width="16" height="16" fill="white" transform="translate(122 60)"/>
</clipPath>
</defs>
</svg>
